<?xml version="1.0" encoding="UTF-8" standalone="no"?>
<!-- Created with Inkscape (http://www.inkscape.org/) -->

<svg
   xmlns:dc="http://purl.org/dc/elements/1.1/"
   xmlns:cc="http://creativecommons.org/ns#"
   xmlns:rdf="http://www.w3.org/1999/02/22-rdf-syntax-ns#"
   xmlns:svg="http://www.w3.org/2000/svg"
   xmlns="http://www.w3.org/2000/svg"
   xmlns:sodipodi="http://sodipodi.sourceforge.net/DTD/sodipodi-0.dtd"
   xmlns:inkscape="http://www.inkscape.org/namespaces/inkscape"
   width="210mm"
   height="297mm"
   viewBox="0 0 210 297"
   version="1.1"
   id="svg8"
   inkscape:version="0.92.3 (2405546, 2018-03-11)"
   sodipodi:docname="desenhando.svg">
  <defs
     id="defs2" />
  <sodipodi:namedview
     id="base"
     pagecolor="#ffffff"
     bordercolor="#666666"
     borderopacity="1.0"
     inkscape:pageopacity="0.0"
     inkscape:pageshadow="2"
     inkscape:zoom="0.30997193"
     inkscape:cx="36.182629"
     inkscape:cy="560"
     inkscape:document-units="mm"
     inkscape:current-layer="layer1"
     showgrid="false"
     inkscape:window-width="1366"
     inkscape:window-height="705"
     inkscape:window-x="-8"
     inkscape:window-y="-8"
     inkscape:window-maximized="1" />
  <metadata
     id="metadata5">
    <rdf:RDF>
      <cc:Work
         rdf:about="">
        <dc:format>image/svg+xml</dc:format>
        <dc:type
           rdf:resource="http://purl.org/dc/dcmitype/StillImage" />
        <dc:title></dc:title>
      </cc:Work>
    </rdf:RDF>
  </metadata>
  <g
     inkscape:label="Camada 1"
     inkscape:groupmode="layer"
     id="layer1">
    <path
       id="path815"
       d="M 185.81344,44.638641 H 24.272425 A 22.028322,22.028322 0 0 0 2.244103,66.666959 V 228.208 a 22.028322,22.028322 0 0 0 22.028322,22.02832 H 87.259651 V 180.3377 h -28.91217 v -32.90022 h 28.91217 v -25.07557 c 0,-28.522079 16.980169,-44.276943 42.987349,-44.276943 12.45518,0 25.47943,2.221201 25.47943,2.221201 V 108.30051 H 141.3759 c -14.13943,0 -18.54969,8.7746 -18.54969,17.77409 v 21.36288 h 31.56475 l -5.04815,32.90022 h -26.5166 v 69.89862 h 62.98723 A 22.028322,22.028322 0 0 0 207.84176,228.208 V 66.666959 A 22.028322,22.028322 0 0 0 185.81344,44.638641 Z"
       inkscape:connector-curvature="0"
       style="fill:#fbdd57;fill-opacity:1;stroke-width:0.45892334" />
  </g>
</svg>
