<?xml version="1.0" encoding="UTF-8" standalone="no"?>
<!-- Created with Inkscape (http://www.inkscape.org/) -->

<svg
   xmlns:dc="http://purl.org/dc/elements/1.1/"
   xmlns:cc="http://creativecommons.org/ns#"
   xmlns:rdf="http://www.w3.org/1999/02/22-rdf-syntax-ns#"
   xmlns:svg="http://www.w3.org/2000/svg"
   xmlns="http://www.w3.org/2000/svg"
   xmlns:sodipodi="http://sodipodi.sourceforge.net/DTD/sodipodi-0.dtd"
   xmlns:inkscape="http://www.inkscape.org/namespaces/inkscape"
   width="210mm"
   height="297mm"
   viewBox="0 0 210 297"
   version="1.1"
   id="svg8"
   inkscape:version="0.92.3 (2405546, 2018-03-11)"
   sodipodi:docname="icon-instagram.svg">
  <defs
     id="defs2" />
  <sodipodi:namedview
     id="base"
     pagecolor="#ffffff"
     bordercolor="#666666"
     borderopacity="1.0"
     inkscape:pageopacity="0.0"
     inkscape:pageshadow="2"
     inkscape:zoom="0.39169922"
     inkscape:cx="148.53154"
     inkscape:cy="560"
     inkscape:document-units="mm"
     inkscape:current-layer="layer1"
     showgrid="false"
     inkscape:window-width="1366"
     inkscape:window-height="705"
     inkscape:window-x="-8"
     inkscape:window-y="-8"
     inkscape:window-maximized="1" />
  <metadata
     id="metadata5">
    <rdf:RDF>
      <cc:Work
         rdf:about="">
        <dc:format>image/svg+xml</dc:format>
        <dc:type
           rdf:resource="http://purl.org/dc/dcmitype/StillImage" />
        <dc:title></dc:title>
      </cc:Work>
    </rdf:RDF>
  </metadata>
  <g
     inkscape:label="Camada 1"
     inkscape:groupmode="layer"
     id="layer1">
    <path
       id="path826"
       d="m 105.05902,103.533 c -28.664817,0 -51.785964,23.12113 -51.785964,51.78595 0,28.66482 23.121147,51.78597 51.785964,51.78597 28.66481,0 51.78595,-23.12115 51.78595,-51.78597 0,-28.66482 -23.12114,-51.78595 -51.78595,-51.78595 z m 0,85.45359 c -18.523962,0 -33.667637,-15.09859 -33.667637,-33.66764 0,-18.56903 15.098605,-33.66763 33.667637,-33.66763 18.56904,0 33.66763,15.0986 33.66763,33.66763 0,18.56905 -15.14367,33.66764 -33.66763,33.66764 z m 65.98316,-87.5719 c 0,6.7155 -5.40845,12.07887 -12.07889,12.07887 -6.71551,0 -12.07888,-5.40845 -12.07888,-12.07887 0,-6.670441 5.40847,-12.078889 12.07888,-12.078889 6.67044,0 12.07889,5.408448 12.07889,12.078889 z m 34.29863,12.25914 C 204.57459,97.493555 200.8788,83.161141 189.0253,71.352684 177.21683,59.544222 162.88442,55.848446 146.70413,55.037177 c -16.67608,-0.946479 -66.65922,-0.946479 -83.335289,0 C 47.233615,55.803373 32.901205,59.499151 21.047676,71.307614 9.1941463,83.116071 5.5434316,97.448475 4.7321625,113.62879 c -0.9464703,16.67607 -0.9464703,66.65921 0,83.33527 0.7661958,16.18031 4.4619838,30.51272 16.3155135,42.32117 11.853529,11.80846 26.140868,15.50425 42.321165,16.31551 16.676069,0.94648 66.659209,0.94648 83.335289,0 16.18029,-0.76622 30.5127,-4.46198 42.32117,-16.31551 11.80844,-11.80845 15.50424,-26.14086 16.31551,-42.32117 0.94647,-16.67606 0.94647,-66.61414 0,-83.29023 z m -21.54371,101.1832 c -3.51548,8.83383 -10.32112,15.63944 -19.20001,19.20002 -13.29577,5.27326 -44.8451,4.05634 -59.53807,4.05634 -14.692973,0 -46.287367,1.17184 -59.538083,-4.05634 -8.833813,-3.51549 -15.639456,-10.32114 -19.200026,-19.20002 -5.273235,-13.29578 -4.056341,-44.84511 -4.056341,-59.53808 0,-14.69296 -1.171821,-46.28736 4.056341,-59.538075 3.515497,-8.833812 10.321139,-15.639451 19.200026,-19.200017 13.295787,-5.273244 44.84511,-4.056342 59.538083,-4.056342 14.69297,0 46.28736,-1.171832 59.53807,4.056342 8.83383,3.515495 15.63945,10.321136 19.20001,19.200017 5.27327,13.295775 4.05636,44.845115 4.05636,59.538075 0,14.69297 1.21691,46.28738 -4.05636,59.53808 z"
       inkscape:connector-curvature="0"
       style="fill:#fbdd57;fill-opacity:1;stroke-width:0.4507046" />
  </g>
</svg>
