<?xml version="1.0" encoding="UTF-8" standalone="no"?>
<!-- Created with Inkscape (http://www.inkscape.org/) -->

<svg
   xmlns:dc="http://purl.org/dc/elements/1.1/"
   xmlns:cc="http://creativecommons.org/ns#"
   xmlns:rdf="http://www.w3.org/1999/02/22-rdf-syntax-ns#"
   xmlns:svg="http://www.w3.org/2000/svg"
   xmlns="http://www.w3.org/2000/svg"
   xmlns:sodipodi="http://sodipodi.sourceforge.net/DTD/sodipodi-0.dtd"
   xmlns:inkscape="http://www.inkscape.org/namespaces/inkscape"
   width="826"
   height="825"
   viewBox="0 0 218.54583 218.28126"
   version="1.1"
   id="svg8"
   inkscape:version="0.92.3 (2405546, 2018-03-11)"
   sodipodi:docname="icon-instagram-black.svg">
  <defs
     id="defs2" />
  <sodipodi:namedview
     id="base"
     pagecolor="#ffffff"
     bordercolor="#666666"
     borderopacity="1.0"
     inkscape:pageopacity="0.0"
     inkscape:pageshadow="2"
     inkscape:zoom="0.43836651"
     inkscape:cx="-47.65133"
     inkscape:cy="560"
     inkscape:document-units="mm"
     inkscape:current-layer="layer1"
     showgrid="false"
     inkscape:window-width="1366"
     inkscape:window-height="705"
     inkscape:window-x="1358"
     inkscape:window-y="-8"
     inkscape:window-maximized="1"
     units="px" />
  <metadata
     id="metadata5">
    <rdf:RDF>
      <cc:Work
         rdf:about="">
        <dc:format>image/svg+xml</dc:format>
        <dc:type
           rdf:resource="http://purl.org/dc/dcmitype/StillImage" />
        <dc:title></dc:title>
      </cc:Work>
    </rdf:RDF>
  </metadata>
  <g
     inkscape:label="Camada 1"
     inkscape:groupmode="layer"
     id="layer1"
     transform="translate(0,-78.718733)">
    <path
       id="path826"
       d="m 109.29628,134.21601 c -29.722287,0 -53.696392,23.95041 -53.696392,53.64334 0,29.69293 23.974105,53.64336 53.696392,53.64336 29.72227,0 53.69637,-23.95043 53.69637,-53.64336 0,-29.69293 -23.9741,-53.64334 -53.69637,-53.64334 z m 0,88.51852 c -19.207321,0 -34.909671,-15.64012 -34.909671,-34.87518 0,-19.23504 15.655614,-34.87518 34.909671,-34.87518 19.25407,0 34.90965,15.64014 34.90965,34.87518 0,19.23506 -15.70232,34.87518 -34.90965,34.87518 z m 68.41733,-90.71281 c 0,6.95636 -5.60798,12.5121 -12.52449,12.5121 -6.96324,0 -12.52448,-5.60244 -12.52448,-12.5121 0,-6.90969 5.60799,-12.51212 12.52448,-12.51212 6.91651,0 12.52449,5.60243 12.52449,12.51212 z m 35.56395,12.69883 c -0.7945,-16.7606 -4.62662,-31.60707 -16.91741,-43.83906 -12.24411,-12.231994 -27.10524,-16.060325 -43.88243,-16.900691 -17.29128,-0.980426 -69.118343,-0.980426 -86.4096,0 -16.730471,0.793676 -31.591628,4.62201 -43.882436,16.854001 -12.2908278,12.23199 -16.0762116,27.07844 -16.9174154,43.8391 -0.9813742,17.27419 -0.9813742,69.05006 0,86.32424 0.7944676,16.76064 4.6265876,31.6071 16.9174154,43.83908 12.290808,12.23199 27.105228,16.06034 43.882436,16.90069 17.291257,0.98043 69.11832,0.98043 86.4096,0 16.77719,-0.79369 31.63832,-4.62201 43.88243,-16.90069 12.24406,-12.23198 16.07621,-27.07844 16.91741,-43.83908 0.98138,-17.27418 0.98138,-69.00338 0,-86.27759 z m -22.33849,104.81231 c -3.64517,9.15067 -10.70186,16.20038 -19.90831,19.88867 -13.78626,5.46238 -46.49948,4.20182 -61.73448,4.20182 -15.235011,0 -47.994947,1.21387 -61.734492,-4.20182 -9.159703,-3.64158 -16.216421,-10.69133 -19.908342,-19.88867 -5.467762,-13.77266 -4.205981,-46.45355 -4.205981,-61.67351 0,-15.21995 -1.215045,-47.94754 4.205981,-61.67352 3.645195,-9.15064 10.701902,-16.20038 19.908342,-19.88865 13.786281,-5.46238 46.499481,-4.20182 61.734492,-4.20182 15.235,0 47.99495,-1.21387 61.73448,4.20182 9.15972,3.64158 16.21641,10.69132 19.90831,19.88865 5.46781,13.77266 4.20601,46.45357 4.20601,61.67352 0,15.21996 1.2618,47.94755 -4.20601,61.67351 z"
       inkscape:connector-curvature="0"
       style="fill:#263238;fill-opacity:1;stroke-width:0.46710065" />
  </g>
</svg>
