<?xml version="1.0" encoding="UTF-8" standalone="no"?>
<svg
   xmlns:dc="http://purl.org/dc/elements/1.1/"
   xmlns:cc="http://creativecommons.org/ns#"
   xmlns:rdf="http://www.w3.org/1999/02/22-rdf-syntax-ns#"
   xmlns:svg="http://www.w3.org/2000/svg"
   xmlns="http://www.w3.org/2000/svg"
   xmlns:sodipodi="http://sodipodi.sourceforge.net/DTD/sodipodi-0.dtd"
   xmlns:inkscape="http://www.inkscape.org/namespaces/inkscape"
   data-name="Layer 1"
   width="570"
   height="511.67482"
   viewBox="0 0 570 511.67482"
   version="1.1"
   id="svg18"
   sodipodi:docname="bg-email.svg"
   inkscape:version="0.92.3 (2405546, 2018-03-11)">
  <metadata
     id="metadata24">
    <rdf:RDF>
      <cc:Work
         rdf:about="">
        <dc:format>image/svg+xml</dc:format>
        <dc:type
           rdf:resource="http://purl.org/dc/dcmitype/StillImage" />
        <dc:title></dc:title>
      </cc:Work>
    </rdf:RDF>
  </metadata>
  <defs
     id="defs22" />
  <sodipodi:namedview
     pagecolor="#ffffff"
     bordercolor="#666666"
     borderopacity="1"
     objecttolerance="10"
     gridtolerance="10"
     guidetolerance="10"
     inkscape:pageopacity="0"
     inkscape:pageshadow="2"
     inkscape:window-width="1366"
     inkscape:window-height="705"
     id="namedview20"
     showgrid="false"
     inkscape:zoom="0.47002376"
     inkscape:cx="407.28306"
     inkscape:cy="56.835077"
     inkscape:window-x="-8"
     inkscape:window-y="-8"
     inkscape:window-maximized="1"
     inkscape:current-layer="svg18" />
  <path
     d="M879.99927,389.83741a.99678.99678,0,0,1-.5708-.1792L602.86963,197.05469a5.01548,5.01548,0,0,0-5.72852.00977L322.57434,389.65626a1.00019,1.00019,0,0,1-1.14868-1.6377l274.567-192.5918a7.02216,7.02216,0,0,1,8.02-.01318l276.55883,192.603a1.00019,1.00019,0,0,1-.57226,1.8208Z"
     transform="translate(-315 -194.16259)"
     fill="#3f3d56"
     id="path2" />
  <polygon
     points="23.264 202.502 285.276 8.319 549.276 216.319 298.776 364.819 162.776 333.819 23.264 202.502"
     fill="#e6e6e6"
     id="polygon4" />
  <path
     d="M489.25553,650.70367H359.81522a6.04737,6.04737,0,1,1,0-12.09473H489.25553a6.04737,6.04737,0,1,1,0,12.09473Z"
     transform="translate(-315 -194.16259)"
     fill="#083c9b"
     id="path6" />
  <path
     d="M406.25553,624.70367H359.81522a6.04737,6.04737,0,1,1,0-12.09473h46.44031a6.04737,6.04737,0,1,1,0,12.09473Z"
     transform="translate(-315 -194.16259)"
     fill="#083c9b"
     id="path8" />
  <path
     d="M603.96016,504.82207a7.56366,7.56366,0,0,1-2.86914-.562L439.5002,437.21123v-209.874a7.00817,7.00817,0,0,1,7-7h310a7.00818,7.00818,0,0,1,7,7v210.0205l-.30371.12989L606.91622,504.22734A7.61624,7.61624,0,0,1,603.96016,504.82207Z"
     transform="translate(-315 -194.16259)"
     fill="#fff"
     id="path10" />
  <path
     d="M603.96016,505.32158a8.07177,8.07177,0,0,1-3.05957-.59863L439.0002,437.54521v-210.208a7.50851,7.50851,0,0,1,7.5-7.5h310a7.50851,7.50851,0,0,1,7.5,7.5V437.68779l-156.8877,66.999A8.10957,8.10957,0,0,1,603.96016,505.32158Zm-162.96-69.1123,160.66309,66.66455a6.1182,6.1182,0,0,0,4.668-.02784l155.669-66.47851V227.33721a5.50653,5.50653,0,0,0-5.5-5.5h-310a5.50653,5.50653,0,0,0-5.5,5.5Z"
     transform="translate(-315 -194.16259)"
     fill="#3f3d56"
     id="path12" />
  <path
     d="M878,387.83741h-.2002L763,436.85743l-157.06982,67.07a5.06614,5.06614,0,0,1-3.88038.02L440,436.71741l-117.62012-48.8-.17968-.08H322a7.00778,7.00778,0,0,0-7,7v304a7.00779,7.00779,0,0,0,7,7H878a7.00779,7.00779,0,0,0,7-7v-304A7.00778,7.00778,0,0,0,878,387.83741Zm5,311a5.002,5.002,0,0,1-5,5H322a5.002,5.002,0,0,1-5-5v-304a5.01106,5.01106,0,0,1,4.81006-5L440,438.87739l161.28027,66.92a7.12081,7.12081,0,0,0,5.43994-.03L763,439.02741l115.2002-49.19a5.01621,5.01621,0,0,1,4.7998,5Z"
     transform="translate(-315 -194.16259)"
     fill="#3f3d56"
     id="path14" />
  <path
     d="M602.345,445.30958a27.49862,27.49862,0,0,1-16.5459-5.4961l-.2959-.22217-62.311-47.70752a27.68337,27.68337,0,1,1,33.67407-43.94921l40.36035,30.94775,95.37793-124.38672a27.68235,27.68235,0,0,1,38.81323-5.12353l-.593.80517.6084-.79346a27.71447,27.71447,0,0,1,5.12353,38.81348L624.36938,434.50586A27.69447,27.69447,0,0,1,602.345,445.30958Z"
     transform="translate(-315 -194.16259)"
     fill="#083c9b"
     id="path16" />
  <g
     id="g860"
     transform="matrix(0.91964286,0,0,0.91964286,20.098088,3.1351575)">
    <circle
       r="32.152843"
       cy="74.740677"
       cx="167.94118"
       id="path852"
       style="opacity:1;fill:#083c9b;fill-opacity:1;stroke:none;stroke-width:23.88478088;stroke-miterlimit:4;stroke-dasharray:none;stroke-dashoffset:0;stroke-opacity:1" />
    <g
       inkscape:label="Camada 1"
       id="layer1"
       transform="matrix(0.39832422,0,0,0.39832422,141.85716,-16.84526)">
      <g
         id="g843"
         transform="matrix(0.16060033,0,0,0.14144436,81.832436,118.54042)">
        <g
           id="g824"
           transform="matrix(0.73600808,0,0,0.73546408,-196.66314,769.53084)">
          <path
             style="fill:#fbdd57;fill-opacity:1;stroke:none;stroke-width:1.63888502px;stroke-linecap:butt;stroke-linejoin:miter;stroke-opacity:1"
             d="m -279.29207,-407.23002 69.13482,334.396873 H 467.95249 L 537.08733,-407.9655 370.86954,-296.90851 c 29.38503,125.07459 -166.29046,110.47861 -124.29559,-14.70953 L 128.16214,-450.62317 14.898702,-311.61805 c 63.367118,124.83303 -149.424412,138.67827 -125.031082,14.70951 z"
             id="path832"
             inkscape:connector-curvature="0"
             sodipodi:nodetypes="cccccccccc" />
          <path
             inkscape:connector-curvature="0"
             style="fill:#fbdd57;fill-opacity:1;stroke:none;stroke-width:1.63888502px;stroke-linecap:butt;stroke-linejoin:miter;stroke-opacity:1"
             d="m -198.33087,-22.253481 c -1.32196,102.116108 -11.25765,202.793931 5.20153,307.873511 111.199414,286.27204 530.55507,284.7427 642.79504,-2.07745 16.58968,-101.99926 5.23524,-203.865951 7.27894,-305.796061 H 411.18072 L 332.13011,212.56802 c -8.15343,10.51722 -17.21184,21.7376 -37.62711,14.83961 -50.2941,-21.89305 -105.22251,-71.32076 -167.27515,-21.87527 -0.26858,-0.22999 -0.53842,-0.45639 -0.80662,-0.68182 -55.110767,-46.33745 -102.358307,-4.86761 -151.052714,20.44442 -15.674604,5.02145 -28.305216,4.87624 -38.07846,-0.69775 L -70.212971,216.8765 -155.68466,-22.253481 Z M 127.56396,280.93067 c 29.2706,32.07693 69.94711,48.94494 128.66209,41.76277 -10.96059,28.76271 -28.33923,50.97149 -77.3829,40.84089 l -27.02242,-17.50278 c -14.36826,-8.37134 -29.03215,-10.22645 -44.21786,-0.61463 L 78.432606,362.3051 C 57.880742,368.71929 39.78281,363.67342 21.622212,358.9282 5.2183849,344.79216 3.3647899,333.2224 0.43514916,321.46427 47.40045,321.97592 94.928229,324.20396 127.56396,280.93067 Z"
             id="path836" />
        </g>
      </g>
    </g>
  </g>
  <text
     xml:space="preserve"
     style="font-style:normal;font-variant:normal;font-weight:normal;font-stretch:normal;font-size:38.93799591px;line-height:1.25;font-family:'Swis721 Blk BT';-inkscape-font-specification:'Swis721 Blk BT';letter-spacing:0px;word-spacing:0px;fill:#083c9b;fill-opacity:1;stroke:none;stroke-width:0.97344995"
     x="300.47086"
     y="455.70599"
     id="text864"><tspan
       sodipodi:role="line"
       id="tspan862"
       x="300.47086"
       y="455.70599"
       style="stroke-width:0.97344995">Rei do Piso</tspan></text>
  <text
     xml:space="preserve"
     style="font-style:normal;font-variant:normal;font-weight:normal;font-stretch:normal;font-size:20.37402916px;line-height:1.25;font-family:'Swis721 Blk BT';-inkscape-font-specification:'Swis721 Blk BT';letter-spacing:0px;word-spacing:0px;fill:#333333;fill-opacity:1;stroke:none;stroke-width:0.50935072;"
     x="303.78229"
     y="480.89685"
     id="text868"><tspan
       sodipodi:role="line"
       id="tspan866"
       x="303.78229"
       y="480.89685"
       style="font-style:normal;font-variant:normal;font-weight:normal;font-stretch:normal;font-family:Arial;-inkscape-font-specification:Arial;stroke-width:0.50935072;fill:#333333;">Materiais e acabamentos</tspan></text>
</svg>
